<svg xmlns="http://www.w3.org/2000/svg" width="500" height="250" viewBox="0 0 500 250" role="img" aria-label="LeetCode stats for Menchaca">
  <title>LeetCode Stats - Menchaca</title>
  <rect width="500" height="250" rx="12" fill="#1A1A2E"/>
  <rect width="500" height="250" rx="12" fill="none" stroke="#2D3250" stroke-width="1"/>
  <rect x="0" y="0" width="500" height="3" fill="#FFA116"/>
  <circle cx="36" cy="39" r="20" fill="#FFA116" opacity="0.15"/>
<text x="36" y="44" text-anchor="middle" font-family="monospace" font-size="14" font-weight="800" fill="#FFA116">LC</text>
  <text x="60" y="36" text-anchor="start" font-family="'Segoe UI',Roboto,sans-serif" font-size="18" font-weight="700" fill="#EBEBF5">Menchaca</text>
  <text x="60" y="54" text-anchor="start" font-family="'Segoe UI',Roboto,sans-serif" font-size="11" font-weight="normal" fill="#8B8B8B">leetcode.com/u/Menchaca</text>
  <line x1="20" y1="80" x2="480" y2="80" stroke="#2D3250"/>
  <text x="20" y="102" text-anchor="start" font-family="'Segoe UI',Roboto,sans-serif" font-size="10" font-weight="600" fill="#8B8B8B">SOLVED</text>
  <text x="80" y="102" text-anchor="start" font-family="'Segoe UI',Roboto,sans-serif" font-size="11" font-weight="700" fill="#EBEBF5">2 / 3879</text>
  <text x="480" y="102" text-anchor="end" font-family="'Segoe UI',Roboto,sans-serif" font-size="10" font-weight="normal" fill="#8B8B8B">—</text>
  <text x="20" y="120" text-anchor="start" font-family="'Segoe UI',Roboto,sans-serif" font-size="12" font-weight="600" fill="#00B8A3">Easy</text>
  <rect x="95" y="113" width="260" height="8" rx="4" fill="#003D36"/>
<rect x="95" y="113" width="0" height="8" rx="4" fill="#00B8A3"/>
  <text x="480" y="120" text-anchor="end" font-family="'Segoe UI',Roboto,sans-serif" font-size="11" font-weight="normal" fill="#8B8B8B">1 / 933</text>
  <text x="20" y="156" text-anchor="start" font-family="'Segoe UI',Roboto,sans-serif" font-size="12" font-weight="600" fill="#FFC01E">Medium</text>
  <rect x="95" y="149" width="260" height="8" rx="4" fill="#3D3010"/>
<rect x="95" y="149" width="0" height="8" rx="4" fill="#FFC01E"/>
  <text x="480" y="156" text-anchor="end" font-family="'Segoe UI',Roboto,sans-serif" font-size="11" font-weight="normal" fill="#8B8B8B">1 / 2030</text>
  <text x="20" y="192" text-anchor="start" font-family="'Segoe UI',Roboto,sans-serif" font-size="12" font-weight="600" fill="#EF4743">Hard</text>
  <rect x="95" y="185" width="260" height="8" rx="4" fill="#3D1010"/>
<rect x="95" y="185" width="0" height="8" rx="4" fill="#EF4743"/>
  <text x="480" y="192" text-anchor="end" font-family="'Segoe UI',Roboto,sans-serif" font-size="11" font-weight="normal" fill="#8B8B8B">0 / 916</text>
</svg>